<svg width="448" height="113" viewBox="0 0 448 113" fill="none" xmlns="http://www.w3.org/2000/svg">
<rect x="0.5" y="0.5" width="447" height="112" stroke="white"/>
<rect x="15" y="14" width="418" height="85" fill="white"/>
<rect x="37.5" y="34.5" width="199" height="44" fill="white" stroke="#D6D6D6"/>
<path d="M64.0922 56.918C64.5402 57.1327 64.8949 57.4407 65.1562 57.842C65.4269 58.2433 65.5622 58.7053 65.5622 59.228C65.5622 60.012 65.2869 60.67 64.7362 61.202C64.1855 61.734 63.5135 62 62.7202 62H58.4922V52.2H62.4122C63.1775 52.2 63.8262 52.4567 64.3582 52.97C64.8902 53.4833 65.1562 54.118 65.1562 54.874C65.1562 55.742 64.8015 56.4233 64.0922 56.918ZM62.4122 53.418H59.7942V56.414H62.4122C62.8229 56.414 63.1682 56.2693 63.4482 55.98C63.7282 55.6907 63.8682 55.336 63.8682 54.916C63.8682 54.5053 63.7235 54.1553 63.4342 53.866C63.1542 53.5673 62.8135 53.418 62.4122 53.418ZM62.7202 60.782C63.1589 60.782 63.5275 60.628 63.8262 60.32C64.1249 60.012 64.2742 59.634 64.2742 59.186C64.2742 58.7473 64.1202 58.374 63.8122 58.066C63.5135 57.758 63.1495 57.604 62.7202 57.604H59.7942V60.782H62.7202ZM74.9595 62L74.1615 59.802H69.7515L68.9535 62H67.5675L71.2215 52.2H72.6915L76.3455 62H74.9595ZM70.1995 58.584H73.7135L71.9495 53.754L70.1995 58.584ZM88.7716 52.2H90.0736V62H78.9016V52.2H80.2036V60.768H83.8436V52.2H85.1316V60.768H88.7716V52.2ZM99.779 60.768H104.329V62H98.477V52.2H104.259V53.432H99.779V56.442H103.909V57.66H99.779V60.768ZM107.301 58.29V57.114H112.411V58.29H107.301ZM125.076 52.2V62H123.788V54.342L120.582 59.676H120.414L117.208 54.356V62H115.906V52.2H117.376L120.498 57.38L123.606 52.2H125.076ZM135.025 62L134.227 59.802H129.817L129.019 62H127.633L131.287 52.2H132.757L136.411 62H135.025ZM130.265 58.584H133.779L132.015 53.754L130.265 58.584ZM138.968 52.2H140.27V62H138.968V52.2ZM145.074 60.768H149.302V62H143.772V52.2H145.074V60.768Z" fill="#333333" fill-opacity="0.5"/>
<rect x="252.5" y="34.5" width="158" height="44" fill="#333333"/>
<rect x="252.5" y="34.5" width="158" height="44" stroke="white"/>
<path d="M296.304 60.198C295.324 61.1873 294.125 61.682 292.706 61.682C291.287 61.682 290.088 61.1873 289.108 60.198C288.128 59.2087 287.638 58.0093 287.638 56.6C287.638 55.1813 288.128 53.982 289.108 53.002C290.088 52.0127 291.287 51.518 292.706 51.518C294.125 51.518 295.324 52.0127 296.304 53.002C297.293 53.982 297.788 55.1813 297.788 56.6C297.788 58.0093 297.293 59.2087 296.304 60.198ZM290.004 59.316C290.732 60.044 291.633 60.408 292.706 60.408C293.779 60.408 294.675 60.044 295.394 59.316C296.122 58.5787 296.486 57.6733 296.486 56.6C296.486 55.5173 296.122 54.612 295.394 53.884C294.675 53.1467 293.779 52.778 292.706 52.778C291.633 52.778 290.732 53.1467 290.004 53.884C289.285 54.612 288.926 55.5173 288.926 56.6C288.926 57.6733 289.285 58.5787 290.004 59.316ZM306.465 51.7V52.932H303.567V61.5H302.279V52.932H299.395V51.7H306.465ZM316.265 51.7V61.5H314.963V52.932H310.455V61.5H309.153V51.7H316.265ZM323.324 51.7C324.23 51.7 324.981 52.0033 325.578 52.61C326.185 53.2073 326.488 53.954 326.488 54.85C326.488 55.7367 326.185 56.4833 325.578 57.09C324.981 57.6967 324.23 58 323.324 58H321.07V61.5H319.768V51.7H323.324ZM323.324 56.782C323.866 56.782 324.313 56.6 324.668 56.236C325.023 55.8627 325.2 55.4007 325.2 54.85C325.2 54.29 325.023 53.828 324.668 53.464C324.313 53.1 323.866 52.918 323.324 52.918H321.07V56.782H323.324ZM334.882 61.5L334.084 59.302H329.674L328.876 61.5H327.49L331.144 51.7H332.614L336.268 61.5H334.882ZM330.122 58.084H333.636L331.872 53.254L330.122 58.084ZM344.424 56.418C344.872 56.6327 345.227 56.9407 345.488 57.342C345.759 57.7433 345.894 58.2053 345.894 58.728C345.894 59.512 345.619 60.17 345.068 60.702C344.517 61.234 343.845 61.5 343.052 61.5H338.824V51.7H342.744C343.509 51.7 344.158 51.9567 344.69 52.47C345.222 52.9833 345.488 53.618 345.488 54.374C345.488 55.242 345.133 55.9233 344.424 56.418ZM342.744 52.918H340.126V55.914H342.744C343.155 55.914 343.5 55.7693 343.78 55.48C344.06 55.1907 344.2 54.836 344.2 54.416C344.2 54.0053 344.055 53.6553 343.766 53.366C343.486 53.0673 343.145 52.918 342.744 52.918ZM343.052 60.282C343.491 60.282 343.859 60.128 344.158 59.82C344.457 59.512 344.606 59.134 344.606 58.686C344.606 58.2473 344.452 57.874 344.144 57.566C343.845 57.258 343.481 57.104 343.052 57.104H340.126V60.282H343.052ZM354.927 61.5V54.192L349.887 61.5H348.837V51.7H350.139V59.022L355.179 51.7H356.229V61.5H354.927ZM365.998 51.7V52.932H363.1V61.5H361.812V52.932H358.928V51.7H365.998ZM372.242 55.2C373.147 55.2 373.899 55.5033 374.496 56.11C375.103 56.7167 375.406 57.4633 375.406 58.35C375.406 59.246 375.103 59.9973 374.496 60.604C373.899 61.2013 373.147 61.5 372.242 61.5H368.686V51.7H369.988V55.2H372.242ZM372.242 60.282C372.783 60.282 373.231 60.1 373.586 59.736C373.941 59.372 374.118 58.91 374.118 58.35C374.118 57.7993 373.941 57.342 373.586 56.978C373.231 56.6047 372.783 56.418 372.242 56.418H369.988V60.282H372.242Z" fill="white"/>
</svg>
